<svg width="353" height="343" xmlns="http://www.w3.org/2000/svg">

 <g>
  <title>Layer 1</title>
  <g id="freepik--background-simple--inject-31">
   <path id="svg_1" fill="#7DCD40" d="m33.04,78.2c-15.32,40.81 -2.09,95.9 21.58,139c61,111.9 209.44,48.63 206.88,-2.19c3.48,-48.48 -40.12,-62.88 -54.91,-90.06c-82.82,-153.42 -161.24,-81.16 -173.55,-46.75z"/>
   <path id="svg_2" fill="#fff" opacity="0.9" d="m33.04,78.2c-15.32,40.81 -2.09,95.9 21.58,139c61,111.9 209.44,48.63 206.88,-2.19c3.48,-48.48 -40.12,-62.88 -54.91,-90.06c-82.82,-153.42 -161.24,-81.16 -173.55,-46.75z"/>
  </g>
  <g id="freepik--404--inject-31">
   <path id="svg_3" fill="#7DCD40" d="m76.03,219.96l-60.85,0l0,-27.47l60.85,-72.34l29.12,0l0,73.9l15.09,0l0,25.91l-15.09,0l0,22.48l-29.12,0l0,-22.48zm0,-25.91l0,-37.84l-32.16,37.84l32.16,0z"/>
   <path id="svg_4" fill="#7DCD40" d="m130.65,181.83q0,-34.29 12.34,-48t37.61,-13.7q12.13,0 19.93,3a36.79,36.79 0 0 1 12.71,7.79a41.59,41.59 0 0 1 7.75,10.09a52.38,52.38 0 0 1 4.55,12.34a115.36,115.36 0 0 1 3.36,28q0,32.72 -11.07,47.89t-38.13,15.18q-15.18,0 -24.53,-4.84a39.76,39.76 0 0 1 -15.33,-14.19q-4.35,-6.64 -6.77,-18.17a124.33,124.33 0 0 1 -2.42,-25.39zm33.14,0.08q0,23 4.05,31.37t11.77,8.41a12.34,12.34 0 0 0 8.82,-3.57q3.74,-3.57 5.5,-11.28t1.76,-24q0,-23.94 -4.06,-32.19t-12.18,-8.24q-8.28,0 -12,8.41t-3.66,31.09z"/>
   <path id="svg_5" fill="#7DCD40" d="m300.09,219.96l-60.85,0l0,-27.47l60.85,-72.34l29.12,0l0,73.9l15.14,0l0,25.91l-15.14,0l0,22.48l-29.12,0l0,-22.48zm0,-25.91l0,-37.84l-32.15,37.84l32.15,0z"/>
  </g>
  <g id="freepik--Planets--inject-31">
   <g id="svg_6" opacity="0.3">
    <path id="svg_7" fill="#7DCD40" d="m129.35,77.94a1.87,1.87 0 1 1 -1.86,-1.87a1.86,1.86 0 0 1 1.86,1.87z"/>
    <circle id="svg_8" fill="#7DCD40" r="1.32" cy="148.45" cx="1.32"/>
    <circle id="svg_9" fill="#7DCD40" r="1.89" cy="340.65" cx="219.4"/>
    <circle id="svg_10" fill="#7DCD40" r="1.32" cy="264.32" cx="264.85"/>
    <path id="svg_11" fill="#7DCD40" d="m352.52,27.94a1.32,1.32 0 1 1 -1.32,-1.32a1.32,1.32 0 0 1 1.32,1.32z"/>
    <path id="svg_12" fill="#7DCD40" d="m101.1,1.32a1.32,1.32 0 1 1 -1.32,-1.32a1.33,1.33 0 0 1 1.32,1.32z"/>
    <circle id="svg_13" fill="#7DCD40" r="1.32" cy="69.26" cx="206.05"/>
   </g>
   <circle id="svg_14" fill="#7DCD40" r="21.91" cy="48.68" cx="69.58"/>
   <circle id="svg_15" fill="#fff" opacity="0.7" r="21.91" cy="48.68" cx="69.58"/>
   <path id="svg_16" fill="#7DCD40" opacity="0.2" d="m62.03,32.15a21.84,21.84 0 0 0 -8.68,1.77a21.92,21.92 0 0 0 24.87,34.89l0,0a21.92,21.92 0 0 0 -16.23,-36.65l0.04,-0.01z"/>
   <path id="svg_17" fill="#7DCD40" opacity="0.2" d="m59.85,37.94a2,2 0 1 1 -2,-2a2,2 0 0 1 2,2z"/>
   <path id="svg_18" fill="#7DCD40" opacity="0.2" d="m83.41,35.94a2,2 0 1 1 -2,-2a2,2 0 0 1 2,2z"/>
   <path id="svg_19" fill="#7DCD40" opacity="0.2" d="m79.41,50.22a3.28,3.28 0 1 1 -3.28,-3.28a3.28,3.28 0 0 1 3.28,3.28z"/>
   <path id="svg_20" fill="#7DCD40" opacity="0.2" d="m68.99,59.57a4.38,4.38 0 1 1 -4.38,-4.38a4.38,4.38 0 0 1 4.38,4.38z"/>
   <circle transform="rotate(-76.72 -143.45 594.1)" id="svg_21" fill="#7DCD40" r="19.23" cy="970.35003" cx="238.75"/>
   <circle transform="rotate(-76.72 -143.45 594.1)" id="svg_22" fill="#fff" opacity="0.3" r="19.23" cy="970.35003" cx="238.75"/>
   <path id="svg_23" fill="#7DCD40" opacity="0.4" d="m322.68,293.66a19.22,19.22 0 0 0 -17.67,33.32a19,19 0 0 0 5.53,0.82a19.23,19.23 0 0 0 12.14,-34.14z"/>
   <path id="svg_24" fill="#7DCD40" d="m292.18,314.32c-20.53,9.66 -5.22,17.11 23.71,6.71c26.79,-9.63 37,-21.77 13,-18c1.29,5.05 -32.26,18.12 -36.71,11.29z"/>
  </g>
  <path id="svg_25" opacity="0.2" d="m322.45,120.15c-26.89,18.17 -61.7,42.17 -71.31,99.81l-2.05,0c9.35,-57 42.89,-81.57 69.79,-99.81l3.57,0z"/>
  <path id="svg_26" fill="#7DCD40" d="m183.35,300.59c-17,0 -33.81,-7.67 -42,-20.19c-5.05,-7.74 -10.92,-23.95 6.56,-45.58l1.55,1.26c-12.36,15.3 -14.64,30.65 -6.43,43.23c10,15.3 33.59,23 53.73,17.52c20.63,-5.61 33.15,-23.55 34.36,-49.22c4.13,-87.81 50.78,-114.86 84.84,-134.61c21.17,-12.27 36.46,-21.13 33.1,-39.84c-0.47,-2.59 -1.5,-4.38 -3.17,-5.48c-4.35,-2.87 -12.85,-0.88 -22.69,1.41c-19.31,4.5 -45.75,10.66 -61.5,-16.13l1.73,-1c15,25.53 39.57,19.8 59.32,15.2c10.29,-2.39 19.17,-4.46 24.24,-1.13c2.15,1.41 3.47,3.64 4,6.8c3.61,20.08 -13,29.72 -34.05,41.92c-33.67,19.52 -79.77,46.25 -83.85,133c-1.26,26.6 -14.32,45.21 -35.84,51.06a52.88,52.88 0 0 1 -13.9,1.78z"/>
  <path id="svg_27" fill="#fff" opacity="0.2" d="m183.35,300.59c-17,0 -33.81,-7.67 -42,-20.19c-5.05,-7.74 -10.92,-23.95 6.56,-45.58l1.55,1.26c-12.36,15.3 -14.64,30.65 -6.43,43.23c10,15.3 33.59,23 53.73,17.52c20.63,-5.61 33.15,-23.55 34.36,-49.22c4.13,-87.81 50.78,-114.86 84.84,-134.61c21.17,-12.27 36.46,-21.13 33.1,-39.84c-0.47,-2.59 -1.5,-4.38 -3.17,-5.48c-4.35,-2.87 -12.85,-0.88 -22.69,1.41c-19.31,4.5 -45.75,10.66 -61.5,-16.13l1.73,-1c15,25.53 39.57,19.8 59.32,15.2c10.29,-2.39 19.17,-4.46 24.24,-1.13c2.15,1.41 3.47,3.64 4,6.8c3.61,20.08 -13,29.72 -34.05,41.92c-33.67,19.52 -79.77,46.25 -83.85,133c-1.26,26.6 -14.32,45.21 -35.84,51.06a52.88,52.88 0 0 1 -13.9,1.78z"/>
  <path id="svg_28" fill="#7DCD40" d="m241.11,29.32a46.05,46.05 0 0 1 13.58,2.13s11,18.77 12.3,23.07c-0.46,4.24 -7.61,11.19 -7.61,11.19l-18.27,-36.39z"/>
  <path id="svg_29" fill="#fff" opacity="0.3" d="m241.11,29.32a46.05,46.05 0 0 1 13.58,2.13s11,18.77 12.3,23.07c-0.46,4.24 -7.61,11.19 -7.61,11.19l-18.27,-36.39z"/>
  <path id="svg_30" fill="#7DCD40" d="m273.69,120.45a141.41,141.41 0 0 1 -11.56,-16.38q-1.26,-2.17 -2.39,-4.42c-0.43,-0.85 -0.84,-1.7 -1.24,-2.56a10.76,10.76 0 0 1 -1.21,-2.69c-1.2,-12.67 3.14,-22 -1,-32.17l-16.48,6.44s1.4,18.12 4.6,29c2,6.73 6.48,12.55 10.81,17.94c1.35,1.68 2.65,3.41 4,5.1s2.71,3.06 4,4.65c1.95,2.41 2.59,4.72 1.12,7.56l-0.25,0.45c-0.42,0.74 1.54,1.58 2.78,0c2,-2.58 1.72,-2.42 3.46,-4.62c1.06,-1.33 2.27,-2.78 3.32,-4a3.37,3.37 0 0 0 0.04,-4.3z"/>
  <path id="svg_31" fill="#eaeaea" d="m273.69,120.45a141.41,141.41 0 0 1 -11.56,-16.38q-1.26,-2.17 -2.39,-4.42c-0.43,-0.85 -0.84,-1.7 -1.24,-2.56a10.76,10.76 0 0 1 -1.21,-2.69c-1.2,-12.67 3.14,-22 -1,-32.17l-16.48,6.44s1.4,18.12 4.6,29c2,6.73 6.48,12.55 10.81,17.94c1.35,1.68 2.65,3.41 4,5.1s2.71,3.06 4,4.65c1.95,2.41 2.59,4.72 1.12,7.56l-0.25,0.45c-0.42,0.74 1.54,1.58 2.78,0c2,-2.58 1.72,-2.42 3.46,-4.62c1.06,-1.33 2.27,-2.78 3.32,-4a3.37,3.37 0 0 0 0.04,-4.3z"/>
  <path id="svg_32" fill="#7DCD40" opacity="0.3" d="m269.66,115.24a54.69,54.69 0 0 1 -8.66,7.52c0.43,0.48 0.85,1 1.28,1.46a43.92,43.92 0 0 0 8.5,-7.51l-1.12,-1.47z"/>
  <path id="svg_33" fill="#7DCD40" opacity="0.3" d="m273.69,120.45l-0.12,-0.14a5.18,5.18 0 0 0 -1.27,3.17a5,5 0 0 0 0.38,2.35l0.95,-1.13a3.37,3.37 0 0 0 0.06,-4.25z"/>
  <path id="svg_34" fill="#7DCD40" d="m237.19,41.32a35.38,35.38 0 0 1 -6.37,7.19a23.27,23.27 0 0 1 -4.42,3a19,19 0 0 1 -2.58,1.09l-0.68,0.22l-0.22,0.06l-0.47,0.13a5.93,5.93 0 0 1 -0.88,0.14a7.55,7.55 0 0 1 -2.51,-0.23a12.24,12.24 0 0 1 -2.94,-1.27a25,25 0 0 1 -2.15,-1.41a40.31,40.31 0 0 1 -3.58,-3a53.16,53.16 0 0 1 -6,-6.74a2.51,2.51 0 0 1 3.35,-3.62l0.08,0c2.36,1.5 4.74,3.08 7.06,4.49c1.18,0.69 2.32,1.39 3.45,1.93a15.29,15.29 0 0 0 1.59,0.72a3.12,3.12 0 0 0 1.07,0.26c0.06,0 0,-0.07 -0.37,-0.06a2.93,2.93 0 0 0 -0.35,0l-0.22,0.05l0,0l0.33,-0.17a13.53,13.53 0 0 0 1.29,-0.79a18.4,18.4 0 0 0 2.5,-2.12a63.62,63.62 0 0 0 4.9,-5.79l0,0a5,5 0 0 1 8,5.93l0.12,-0.01z"/>
  <path id="svg_35" fill="#fff" d="m237.19,41.32a35.38,35.38 0 0 1 -6.37,7.19a23.27,23.27 0 0 1 -4.42,3a19,19 0 0 1 -2.58,1.09l-0.68,0.22l-0.22,0.06l-0.47,0.13a5.93,5.93 0 0 1 -0.88,0.14a7.55,7.55 0 0 1 -2.51,-0.23a12.24,12.24 0 0 1 -2.94,-1.27a25,25 0 0 1 -2.15,-1.41a40.31,40.31 0 0 1 -3.58,-3a53.16,53.16 0 0 1 -6,-6.74a2.51,2.51 0 0 1 3.35,-3.62l0.08,0c2.36,1.5 4.74,3.08 7.06,4.49c1.18,0.69 2.32,1.39 3.45,1.93a15.29,15.29 0 0 0 1.59,0.72a3.12,3.12 0 0 0 1.07,0.26c0.06,0 0,-0.07 -0.37,-0.06a2.93,2.93 0 0 0 -0.35,0l-0.22,0.05l0,0l0.33,-0.17a13.53,13.53 0 0 0 1.29,-0.79a18.4,18.4 0 0 0 2.5,-2.12a63.62,63.62 0 0 0 4.9,-5.79l0,0a5,5 0 0 1 8,5.93l0.12,-0.01z"/>
  <path id="svg_36" fill="#7DCD40" d="m200.64,34.74l1.17,2s0.89,2.62 2.68,3.1l4.86,-1.57l-0.25,-0.41l0,0c-0.62,-0.94 -0.55,-2.77 -0.34,-4.29s-0.57,-1.57 -1.15,-1.19a3.82,3.82 0 0 0 -0.84,1.65a7.77,7.77 0 0 0 -0.79,-0.93l-1.48,-1.48a1.72,1.72 0 0 0 -2.34,-0.06l-1.2,1.07a1.71,1.71 0 0 0 -0.32,2.11z"/>
  <path id="svg_37" fill="#fff" d="m200.64,34.74l1.17,2s0.89,2.62 2.68,3.1l4.86,-1.57l-0.25,-0.41l0,0c-0.62,-0.94 -0.55,-2.77 -0.34,-4.29s-0.57,-1.57 -1.15,-1.19a3.82,3.82 0 0 0 -0.84,1.65a7.77,7.77 0 0 0 -0.79,-0.93l-1.48,-1.48a1.72,1.72 0 0 0 -2.34,-0.06l-1.2,1.07a1.71,1.71 0 0 0 -0.32,2.11z"/>
  <path id="svg_38" fill="#7DCD40" d="m246.02,27.54a59.64,59.64 0 0 0 -15.34,6.47a4.32,4.32 0 0 0 -1.94,4.53c1.93,9.44 6.32,22.08 11.06,30.13l22.11,-9.15c0.15,-3.9 -5.22,-16.52 -10.69,-28.72c-0.98,-2.19 -2.87,-3.82 -5.2,-3.26z"/>
  <path id="svg_39" fill="#ffffff" d="m246.02,27.54a59.64,59.64 0 0 0 -15.34,6.47a4.32,4.32 0 0 0 -1.94,4.53c1.93,9.44 6.32,22.08 11.06,30.13l22.11,-9.15c0.15,-3.9 -5.22,-16.52 -10.69,-28.72c-0.98,-2.19 -2.87,-3.82 -5.2,-3.26z"/>
  <path id="svg_40" fill="#7DCD40" opacity="0.3" d="m254.65,38.53l-4.39,-1.47c1,2.57 4.53,5.82 7,7.73c-0.8,-2 -1.69,-4.1 -2.61,-6.26z"/>
  <path id="svg_41" fill="#7DCD40" d="m244.57,17.64c-1.83,-3.48 -5.78,-5.23 -10.52,-4.84c-4,0.34 -7.54,4.42 -7.12,6.62s3.78,3.14 4.42,3.9l-2.77,2a3,3 0 0 0 -0.6,4.29c1.17,1.48 2.71,3 3.6,4.12c7.66,-0.2 13.33,-3.12 15.38,-5.93c-0.77,-3.56 -0.61,-6.7 -2.39,-10.16z"/>
  <path id="svg_42" fill="#fff" d="m244.57,17.64c-1.83,-3.48 -5.78,-5.23 -10.52,-4.84c-4,0.34 -7.54,4.42 -7.12,6.62s3.78,3.14 4.42,3.9l-2.77,2a3,3 0 0 0 -0.6,4.29c1.17,1.48 2.71,3 3.6,4.12c7.66,-0.2 13.33,-3.12 15.38,-5.93c-0.77,-3.56 -0.61,-6.7 -2.39,-10.16z"/>
  <path id="svg_43" fill="#263238" d="m240.81,19.8a7.57,7.57 0 1 1 -9.81,-4.3a7.58,7.58 0 0 1 9.81,4.3z"/>
  <path id="svg_44" fill="#7DCD40" d="m305.74,109.92c-0.11,-3.29 -0.26,-3 -0.35,-5.77c-0.06,-1.7 -0.07,-3.59 -0.08,-5.22a3.36,3.36 0 0 0 -2.7,-3.28c-1.32,-0.27 -2.65,-0.52 -4,-0.8c-1.73,-0.37 -3.44,-0.77 -5.13,-1.26c-1.32,-0.38 -2.62,-0.8 -3.91,-1.27s-2.74,-1 -4.08,-1.62c-1.58,-0.67 -3.14,-1.39 -4.68,-2.14c-1.73,-0.82 -3.44,-1.68 -5.15,-2.55c-6.58,-10.89 -6.72,-18.07 -13.78,-26.49l-15.16,6.86s11.14,19.76 18.72,28.14c4.37,4.82 11.22,7 17.33,8.58c4.41,1.13 8.88,2 13.35,2.83c1.74,0.32 3.63,0.44 5.13,1.48a5.74,5.74 0 0 1 2.14,3.45q0.1,0.42 0.18,0.84c0.19,0.84 2.24,0.2 2.17,-1.78z"/>
  <path id="svg_45" fill="#ffffff" d="m305.74,109.92c-0.11,-3.29 -0.26,-3 -0.35,-5.77c-0.06,-1.7 -0.07,-3.59 -0.08,-5.22a3.36,3.36 0 0 0 -2.7,-3.28c-1.32,-0.27 -2.65,-0.52 -4,-0.8c-1.73,-0.37 -3.44,-0.77 -5.13,-1.26c-1.32,-0.38 -2.62,-0.8 -3.91,-1.27s-2.74,-1 -4.08,-1.62c-1.58,-0.67 -3.14,-1.39 -4.68,-2.14c-1.73,-0.82 -3.44,-1.68 -5.15,-2.55c-6.58,-10.89 -6.72,-18.07 -13.78,-26.49l-15.16,6.86s11.14,19.76 18.72,28.14c4.37,4.82 11.22,7 17.33,8.58c4.41,1.13 8.88,2 13.35,2.83c1.74,0.32 3.63,0.44 5.13,1.48a5.74,5.74 0 0 1 2.14,3.45q0.1,0.42 0.18,0.84c0.19,0.84 2.24,0.2 2.17,-1.78z"/>
  <path id="svg_46" fill="#7DCD40" opacity="0.3" d="m298.05,94.72c-0.6,-0.13 -1.2,-0.26 -1.81,-0.41c0.05,3.46 -1.57,9.42 -2.16,11.23l1.9,0.36a38.11,38.11 0 0 0 2.07,-11.18z"/>
  <path id="svg_47" fill="#7DCD40" opacity="0.3" d="m305.35,98.93a3.36,3.36 0 0 0 -2.69,-3.28l-1,-0.19a4.58,4.58 0 0 0 1.63,2.9a5.09,5.09 0 0 0 2,1.14c0.06,-0.18 0.06,-0.38 0.06,-0.57z"/>
  <path id="svg_48" fill="#fff" d="m239.4,19.86c0.4,1.52 -1.3,3.11 -2.65,1.8a30.83,30.83 0 0 0 -4.12,-3.69c-1.39,-0.87 0.46,-2.39 2.65,-1.8a5.94,5.94 0 0 1 4.12,3.69z"/>
  <path id="svg_49" fill="#7DCD40" d="m239.51,68.18c-0.7,0.26 0.58,1.46 0.58,1.46s14,-4.79 22.5,-9.72a1.88,1.88 0 0 0 -0.68,-1.58a216,216 0 0 1 -22.4,9.84z"/>
  <path id="svg_50" fill="#fff" opacity="0.5" d="m239.51,68.18c-0.7,0.26 0.58,1.46 0.58,1.46s14,-4.79 22.5,-9.72a1.88,1.88 0 0 0 -0.68,-1.58a216,216 0 0 1 -22.4,9.84z"/>
  <path id="svg_51" fill="#7DCD40" d="m249.81,26.88c2.76,1.4 5.35,2.87 8,4.5c1.29,0.82 2.57,1.65 3.84,2.55s2.53,1.82 3.8,2.86l0.47,0.39l0.59,0.54a12.74,12.74 0 0 1 1,1c0.32,0.35 0.59,0.69 0.85,1s0.54,0.68 0.77,1a43.8,43.8 0 0 1 2.58,4a59.05,59.05 0 0 1 4,8.35a2.52,2.52 0 0 1 -4.19,2.62l-0.05,-0.06c-2,-2.13 -3.93,-4.37 -5.87,-6.46s-3.91,-4.21 -5.54,-5.14c-2.27,-1.41 -4.8,-2.82 -7.31,-4.2l-7.56,-4.2l0,0a5,5 0 0 1 4.68,-8.84l-0.06,0.09z"/>
  <path id="svg_52" fill="#fff" d="m249.81,26.88c2.76,1.4 5.35,2.87 8,4.5c1.29,0.82 2.57,1.65 3.84,2.55s2.53,1.82 3.8,2.86l0.47,0.39l0.59,0.54a12.74,12.74 0 0 1 1,1c0.32,0.35 0.59,0.69 0.85,1s0.54,0.68 0.77,1a43.8,43.8 0 0 1 2.58,4a59.05,59.05 0 0 1 4,8.35a2.52,2.52 0 0 1 -4.19,2.62l-0.05,-0.06c-2,-2.13 -3.93,-4.37 -5.87,-6.46s-3.91,-4.21 -5.54,-5.14c-2.27,-1.41 -4.8,-2.82 -7.31,-4.2l-7.56,-4.2l0,0a5,5 0 0 1 4.68,-8.84l-0.06,0.09z"/>
  <path id="svg_53" fill="#7DCD40" d="m278.08,58.06l-0.85,-2.13s-0.47,-2.72 -2.16,-3.48l-5,0.79l0.17,0.44l0,0c0.46,1 0.11,2.83 -0.34,4.29s0.31,1.65 0.95,1.36c0.36,-0.16 0.71,-0.81 1.09,-1.5a8.46,8.46 0 0 0 0.63,1l1.23,1.69a1.72,1.72 0 0 0 2.3,0.44l1.36,-0.87a1.7,1.7 0 0 0 0.62,-2.03z"/>
  <path id="svg_54" fill="#fff" d="m278.08,58.06l-0.85,-2.13s-0.47,-2.72 -2.16,-3.48l-5,0.79l0.17,0.44l0,0c0.46,1 0.11,2.83 -0.34,4.29s0.31,1.65 0.95,1.36c0.36,-0.16 0.71,-0.81 1.09,-1.5a8.46,8.46 0 0 0 0.63,1l1.23,1.69a1.72,1.72 0 0 0 2.3,0.44l1.36,-0.87a1.7,1.7 0 0 0 0.62,-2.03z"/>
  <path id="svg_55" fill="#7DCD40" opacity="0.3" d="m245.59,38.38l-1.22,0.1l-7.49,18.08a4,4 0 0 0 1.22,-0.1s9.76,-3.64 12.71,-5c-1.98,-4.09 -5.22,-13.08 -5.22,-13.08z"/>
  <path id="svg_56" fill="#fff" d="m231.92,43.12a43.41,43.41 0 0 0 5,13.44c3.66,-1.26 9.76,-3.64 12.72,-5a135.36,135.36 0 0 1 -5.29,-13.08c-3.13,0.21 -10,2.84 -12.43,4.64z"/>
  <path id="svg_57" fill="#7DCD40" opacity="0.3" d="m239.35,47.03a2.58,2.58 0 1 1 -1.73,-3.21a2.58,2.58 0 0 1 1.73,3.21z"/>
  <path id="svg_58" fill="#7DCD40" opacity="0.6" d="m241.26,43.59a0.85,0.85 0 1 1 -0.56,-1a0.84,0.84 0 0 1 0.56,1z"/>
  <path id="svg_59" fill="#7DCD40" opacity="0.6" d="m243.5,42.72a0.85,0.85 0 1 1 -1.62,-0.49a0.84,0.84 0 0 1 1.05,-0.56a0.85,0.85 0 0 1 0.57,1.05z"/>
  <polygon id="svg_60" fill="#7DCD40" opacity="0.5" points="246.64000701904297,50.51000213623047 237.39000701904297,54.159996032714844 236.8399887084961,52.339996337890625 246.08000946044922,48.69000244140625 246.64000701904297,50.51000213623047 "/>
  <g id="freepik--Rocket--inject-31">
   <path id="svg_61" opacity="0.2" d="m195.61,189.49a94,94 0 0 1 -1.68,17.35q-1.77,7.71 -5.5,11.28a12.3,12.3 0 0 1 -8.81,3.57q-7.71,0 -11.77,-8.41a23.79,23.79 0 0 1 -1.21,-3.11a144.31,144.31 0 0 0 -15.92,16l-5.31,6.26a38.62,38.62 0 0 0 9.77,7.19q9.34,4.83 24.52,4.84c1.78,0 3.5,-0.05 5.17,-0.15a143.39,143.39 0 0 0 15.1,-29l14.85,-38.72l-19.21,12.9z"/>
   <path id="svg_62" fill="#263238" d="m61.74,242.32l17.5,17.5l49,-46.17c-16.89,-6.45 -49.73,11.86 -66.5,28.67z"/>
   <path id="svg_63" fill="#263238" d="m122.77,303.32c-5.59,-5.6 -17.5,-17.5 -17.5,-17.5l46.17,-49c6.41,16.85 -11.9,49.72 -28.67,66.5z"/>
   <path id="svg_64" fill="#7DCD40" d="m189.75,193.02l19.09,-36.81l-36.81,19.11a144.22,144.22 0 0 0 -32.44,23l-62.75,59.07l30.83,30.83l59.07,-62.75a144.22,144.22 0 0 0 23.01,-32.45z"/>
   <path id="svg_65" fill="#fff" opacity="0.6" d="m189.75,193.02l19.09,-36.81l-36.81,19.11a144.22,144.22 0 0 0 -32.44,23l-62.75,59.07l30.83,30.83l59.07,-62.75a144.22,144.22 0 0 0 23.01,-32.45z"/>
   <circle id="svg_66" fill="#fff" r="12.9" cy="214.5" cx="150.55"/>
   <circle id="svg_67" fill="#7DCD40" r="8.29" cy="214.5" cx="150.55"/>
   <polygon id="svg_68" fill="#7DCD40" opacity="0.3" points="118.0999984741211,277.14000701904297 87.90999603271484,246.95000457763672 112.62999725341797,223.68999481201172 141.35999298095703,252.42998504638672 118.0999984741211,277.14000701904297 "/>
   <path id="svg_69" fill="#7DCD40" d="m68.57,269.94c-22.6,1.83 -30.09,16.3 -32.65,35.53c-1.3,9.81 -1.88,19.74 -10.11,25.48a2.77,2.77 0 0 0 1.63,5.06c30.34,-0.95 44.49,-15.8 46.27,-22a43.06,43.06 0 0 1 -2.49,9.47a2.76,2.76 0 0 0 4,3.39c8.51,-5.33 19.19,-15.15 19.9,-31.08c-6.26,-8.87 -26.55,-25.85 -26.55,-25.85z"/>
   <path id="svg_70" fill="#fff" opacity="0.2" d="m68.57,269.94c-22.6,1.83 -30.09,16.3 -32.65,35.53c-1.3,9.81 -1.88,19.74 -10.11,25.48a2.77,2.77 0 0 0 1.63,5.06c30.34,-0.95 44.49,-15.8 46.27,-22a43.06,43.06 0 0 1 -2.49,9.47a2.76,2.76 0 0 0 4,3.39c8.51,-5.33 19.19,-15.15 19.9,-31.08c-6.26,-8.87 -26.55,-25.85 -26.55,-25.85z"/>
   <polygon id="svg_71" fill="#7DCD40" points="98.62999725341797,302.61998748779297 62.43000030517578,266.42000579833984 81.70999908447266,262.24999237060547 102.79999542236328,283.3399887084961 98.62999725341797,302.61998748779297 "/>
  </g>
 </g>
</svg>