<svg width="16" height="16" xmlns="http://www.w3.org/2000/svg" class="bi bi-pencil-fill" fill="currentColor">

 <g>
  <title>Layer 1</title>
  <path fill="#7dcd40" id="svg_1" d="m12.854,0.146a0.5,0.5 0 0 0 -0.707,0l-1.647,1.647l3.707,3.707l1.647,-1.646a0.5,0.5 0 0 0 0,-0.708l-3,-3zm0.646,6.061l-3.707,-3.707l-6.5,6.5l0.207,0a0.5,0.5 0 0 1 0.5,0.5l0,0.5l0.5,0a0.5,0.5 0 0 1 0.5,0.5l0,0.5l0.5,0a0.5,0.5 0 0 1 0.5,0.5l0,0.5l0.5,0a0.5,0.5 0 0 1 0.5,0.5l0,0.207l6.5,-6.5zm-7.468,7.468a0.5,0.5 0 0 1 -0.032,-0.175l0,-0.5l-0.5,0a0.5,0.5 0 0 1 -0.5,-0.5l0,-0.5l-0.5,0a0.5,0.5 0 0 1 -0.5,-0.5l0,-0.5l-0.5,0a0.5,0.5 0 0 1 -0.5,-0.5l0,-0.5l-0.5,0a0.499,0.499 0 0 1 -0.175,-0.032l-0.179,0.178a0.5,0.5 0 0 0 -0.11,0.168l-2,5a0.5,0.5 0 0 0 0.65,0.65l5,-2a0.5,0.5 0 0 0 0.168,-0.11l0.178,-0.178l0,-0.001z"/>
 </g>
</svg>